<svg version="1.1" id="Layer_1" xmlns="http://www.w3.org/2000/svg" xmlns:xlink="http://www.w3.org/1999/xlink" x="0px" y="0px"
	 width="100%" viewBox="0 0 558 85" enable-background="new 0 0 558 85" xml:space="preserve">
<path fill="#FEFEFE" opacity="1.000000" stroke="none" 
	d="
M412.000000,86.000000 
	C274.666656,86.000000 137.833328,86.000000 1.000000,86.000000 
	C1.000000,57.666668 1.000000,29.333334 1.000000,1.000000 
	C187.000000,1.000000 373.000000,1.000000 559.000000,1.000000 
	C559.000000,29.333334 559.000000,57.666668 559.000000,86.000000 
	C510.166656,86.000000 461.333344,86.000000 412.000000,86.000000 
M96.499710,65.999115 
	C110.219963,65.999115 123.940216,65.999115 139.011322,65.999115 
	C133.789703,59.706139 129.499619,54.290829 124.892647,49.160061 
	C123.774750,47.915062 121.596611,47.642029 119.934319,46.861732 
	C116.428284,45.215961 111.092804,44.424023 109.776169,41.701321 
	C104.907867,31.634075 94.735596,28.022142 87.990898,21.208700 
	C84.751350,23.349276 82.151283,26.197680 79.135582,26.741594 
	C76.128334,27.283989 74.265419,28.268307 72.953362,30.697027 
	C68.309639,39.292870 60.393993,44.668102 53.441765,51.060844 
	C48.981339,55.162312 45.457474,60.282307 41.513786,64.945740 
	C41.898968,65.296860 42.284149,65.647987 42.669331,65.999115 
	C60.279419,65.999115 77.889503,65.999115 96.499710,65.999115 
M169.923843,60.392250 
	C169.923843,52.032696 169.923843,43.673141 169.923843,35.313587 
	C175.505844,44.818569 180.052185,54.521492 184.840393,64.103554 
	C185.482727,65.388977 187.293518,66.702148 188.660995,66.814705 
	C189.703140,66.900490 191.327087,65.325134 191.954834,64.108376 
	C194.770035,58.651615 197.312439,53.054443 199.970871,47.516376 
	C202.049835,43.185474 204.154617,38.866970 206.247925,34.542953 
	C206.544418,34.651642 206.840927,34.760330 207.137421,34.869019 
	C207.137421,45.490295 207.137421,56.111576 207.137421,67.059082 
	C209.123383,66.953278 210.825485,66.862587 212.465057,66.775238 
	C212.465057,51.007210 212.465057,35.739223 212.465057,20.550152 
	C208.805649,19.414005 206.831528,20.463724 205.281540,23.869802 
	C199.940323,35.606903 194.254578,47.187218 188.438965,59.374462 
	C182.560516,47.159893 176.795059,35.572281 171.434769,23.800186 
	C169.852371,20.324945 167.912338,19.391008 164.329727,20.582521 
	C164.329727,35.921799 164.329727,51.327148 164.329727,67.050453 
	C166.318863,66.956749 168.033264,66.875992 169.923920,66.786926 
	C169.923920,64.657822 169.923920,63.007286 169.923843,60.392250 
M394.693390,56.771435 
	C389.708069,45.569588 384.775116,34.343731 379.664673,23.199257 
	C379.088867,21.943621 377.635986,20.616463 376.355865,20.314613 
	C375.413483,20.092405 373.479309,21.211920 373.026886,22.206530 
	C366.319305,36.953106 359.785614,51.778755 353.222961,66.558220 
	C357.929779,68.284889 360.036804,66.102470 361.035492,62.150509 
	C362.255157,57.324203 364.963013,55.121284 370.245972,55.915855 
	C373.823029,56.453850 377.606537,56.437183 381.190643,55.922714 
	C386.904297,55.102573 390.218079,57.158684 391.460876,62.744869 
	C392.366699,66.816109 394.903687,67.931969 398.929260,66.558044 
	C397.605438,63.521580 396.288177,60.500233 394.693390,56.771435 
M449.101257,56.472183 
	C449.101257,59.905739 449.101257,63.339294 449.101257,66.828606 
	C458.643555,66.828606 467.574860,66.828606 476.632690,66.828606 
	C476.632690,65.100983 476.632690,63.578011 476.632690,61.596249 
	C469.239532,61.596249 462.161194,61.596249 455.113708,61.596249 
	C455.113708,56.206539 455.113708,51.283493 455.113708,45.969269 
	C460.608765,45.969269 465.865417,45.969269 471.284668,45.969269 
	C471.284668,44.165623 471.284668,42.763256 471.284668,40.793762 
	C465.679230,40.793762 460.300232,40.793762 455.130920,40.793762 
	C455.130920,35.444168 455.130920,30.667665 455.130920,25.558550 
	C462.154724,25.558550 468.916748,25.558550 475.800842,25.558550 
	C475.800842,23.544416 475.800842,21.877426 475.800842,20.391329 
	C466.773865,20.391329 458.170593,20.391329 449.101257,20.391329 
	C449.101257,32.260632 449.101257,43.869595 449.101257,56.472183 
M496.748444,24.809540 
	C502.355316,23.853678 505.677673,27.305315 508.819733,31.473551 
	C510.155823,30.558870 511.293488,29.780039 512.396973,29.024601 
	C507.339722,20.127016 499.441956,17.273237 491.118439,21.012669 
	C482.622467,24.829567 481.409271,35.329033 488.958618,40.809032 
	C491.073792,42.344398 493.630310,43.288136 496.024078,44.419125 
	C498.869690,45.763580 501.987122,46.670605 504.580170,48.382870 
	C509.905731,51.899410 509.193024,58.868664 503.449524,61.640759 
	C497.471924,64.525833 491.432281,62.541874 487.658844,56.460976 
	C487.258423,55.815701 486.819702,55.194176 486.267395,54.364262 
	C484.786011,55.233257 483.569031,55.947136 482.410919,56.626484 
	C485.538055,65.150276 493.648285,69.581604 502.017731,67.617172 
	C508.898132,66.002235 513.083374,62.031788 513.871033,56.372204 
	C514.659424,50.707996 511.728424,46.079006 504.972717,42.828022 
	C501.840271,41.320621 498.475220,40.304340 495.287811,38.901302 
	C491.879120,37.400875 489.324646,35.093689 489.662079,30.956915 
	C489.967773,27.208693 492.482758,25.543983 496.748444,24.809540 
M404.067627,37.754948 
	C402.273651,50.630817 406.943176,60.389896 417.187134,65.174034 
	C426.328735,69.443344 436.474030,68.047646 442.537567,61.504810 
	C441.497650,60.355652 440.450043,59.198025 439.494537,58.142132 
	C428.908356,64.145332 420.389954,63.277973 413.922791,55.838669 
	C408.100098,49.140644 407.506622,39.307545 412.969940,32.409801 
	C420.540009,22.852213 430.350769,22.915489 439.649689,28.684727 
	C440.526093,27.554682 441.412598,26.411627 442.288116,25.282705 
	C429.303284,13.914090 410.575714,19.790253 404.067627,37.754948 
M303.604431,20.564236 
	C297.507507,20.564236 291.410583,20.564236 285.052795,20.564236 
	C285.052795,35.931988 285.052795,51.282333 285.052795,66.739838 
	C286.803497,66.739838 288.356384,66.739838 290.454651,66.739838 
	C290.454651,61.097412 290.454651,55.714828 290.454651,50.408955 
	C309.897491,49.261234 315.045746,46.669033 316.100281,37.739956 
	C317.127136,29.045626 313.368439,23.600737 303.604431,20.564236 
M220.892807,23.582865 
	C222.107254,25.369324 223.130585,27.328987 224.567154,28.914145 
	C233.868881,39.177887 238.188477,50.969212 235.979706,64.870750 
	C235.883347,65.477318 236.122971,66.137260 236.237778,67.014481 
	C237.192001,67.014481 237.995697,67.047333 238.795456,67.005196 
	C239.584518,66.963615 240.369568,66.846161 241.061783,66.772118 
	C241.237915,66.218727 241.410873,65.909409 241.423584,65.593643 
	C241.470352,64.429993 241.626022,63.239532 241.452789,62.103043 
	C239.658966,50.335350 243.199402,40.335827 250.996796,31.490217 
	C253.848404,28.255259 255.972809,24.379261 258.537079,20.637970 
	C254.128220,19.349205 251.861069,20.711630 249.904068,23.801430 
	C246.414383,29.311142 242.517761,34.563114 238.639252,40.141560 
	C234.598038,34.283432 230.725311,29.067978 227.308990,23.568979 
	C225.234833,20.230330 222.853775,19.294485 219.094208,20.731466 
	C219.614120,21.596073 220.032852,22.292412 220.892807,23.582865 
M328.120514,46.494919 
	C328.120514,37.757210 328.120514,29.019497 328.120514,20.044403 
	C325.933868,20.211035 324.516327,20.319059 323.094696,20.427393 
	C323.094696,36.098167 323.094696,51.438770 323.094696,66.787766 
	C331.845215,66.787766 340.261505,66.787766 348.689697,66.787766 
	C348.689697,65.042679 348.689697,63.517147 348.689697,61.657852 
	C341.761108,61.657852 335.169525,61.657852 328.120361,61.657852 
	C328.120361,56.717865 328.120361,52.105087 328.120514,46.494919 
z"/>
<path fill="#5B5E9E" opacity="1.000000" stroke="none" 
	d="
M95.999649,65.999115 
	C77.889503,65.999115 60.279419,65.999115 42.669331,65.999115 
	C42.284149,65.647987 41.898968,65.296860 41.513786,64.945740 
	C45.457474,60.282307 48.981339,55.162312 53.441765,51.060844 
	C60.393993,44.668102 68.309639,39.292870 72.953362,30.697027 
	C74.265419,28.268307 76.128334,27.283989 79.135582,26.741594 
	C82.151283,26.197680 84.751350,23.349276 87.990898,21.208700 
	C94.735596,28.022142 104.907867,31.634075 109.776169,41.701321 
	C111.092804,44.424023 116.428284,45.215961 119.934319,46.861732 
	C121.596611,47.642029 123.774750,47.915062 124.892647,49.160061 
	C129.499619,54.290829 133.789703,59.706139 139.011322,65.999115 
	C123.940216,65.999115 110.219963,65.999115 95.999649,65.999115 
z"/>
<path fill="#1E1E1E" opacity="1.000000" stroke="none" 
	d="
M169.923889,60.874500 
	C169.923920,63.007286 169.923920,64.657822 169.923920,66.786926 
	C168.033264,66.875992 166.318863,66.956749 164.329727,67.050453 
	C164.329727,51.327148 164.329727,35.921799 164.329727,20.582521 
	C167.912338,19.391008 169.852371,20.324945 171.434769,23.800186 
	C176.795059,35.572281 182.560516,47.159893 188.438965,59.374462 
	C194.254578,47.187218 199.940323,35.606903 205.281540,23.869802 
	C206.831528,20.463724 208.805649,19.414005 212.465057,20.550152 
	C212.465057,35.739223 212.465057,51.007210 212.465057,66.775238 
	C210.825485,66.862587 209.123383,66.953278 207.137421,67.059082 
	C207.137421,56.111576 207.137421,45.490295 207.137421,34.869019 
	C206.840927,34.760330 206.544418,34.651642 206.247925,34.542953 
	C204.154617,38.866970 202.049835,43.185474 199.970871,47.516376 
	C197.312439,53.054443 194.770035,58.651615 191.954834,64.108376 
	C191.327087,65.325134 189.703140,66.900490 188.660995,66.814705 
	C187.293518,66.702148 185.482727,65.388977 184.840393,64.103554 
	C180.052185,54.521492 175.505844,44.818569 169.923843,35.313587 
	C169.923843,43.673141 169.923843,52.032696 169.923889,60.874500 
z"/>
<path fill="#1B1B1B" opacity="1.000000" stroke="none" 
	d="
M394.832153,57.125160 
	C396.288177,60.500233 397.605438,63.521580 398.929260,66.558044 
	C394.903687,67.931969 392.366699,66.816109 391.460876,62.744869 
	C390.218079,57.158684 386.904297,55.102573 381.190643,55.922714 
	C377.606537,56.437183 373.823029,56.453850 370.245972,55.915855 
	C364.963013,55.121284 362.255157,57.324203 361.035492,62.150509 
	C360.036804,66.102470 357.929779,68.284889 353.222961,66.558220 
	C359.785614,51.778755 366.319305,36.953106 373.026886,22.206530 
	C373.479309,21.211920 375.413483,20.092405 376.355865,20.314613 
	C377.635986,20.616463 379.088867,21.943621 379.664673,23.199257 
	C384.775116,34.343731 389.708069,45.569588 394.832153,57.125160 
M380.279358,37.208858 
	C379.035919,34.330727 377.792511,31.452591 376.106628,27.550367 
	C372.399384,36.079609 369.216583,43.402290 365.855347,51.135410 
	C372.508881,51.135410 378.479553,51.142788 384.450073,51.120300 
	C384.890137,51.118645 385.329437,50.901649 386.130249,50.688747 
	C384.267578,46.315781 382.467468,42.089676 380.279358,37.208858 
z"/>
<path fill="#1F1F1F" opacity="1.000000" stroke="none" 
	d="
M449.101257,55.975372 
	C449.101257,43.869595 449.101257,32.260632 449.101257,20.391329 
	C458.170593,20.391329 466.773865,20.391329 475.800842,20.391329 
	C475.800842,21.877426 475.800842,23.544416 475.800842,25.558550 
	C468.916748,25.558550 462.154724,25.558550 455.130920,25.558550 
	C455.130920,30.667665 455.130920,35.444168 455.130920,40.793762 
	C460.300232,40.793762 465.679230,40.793762 471.284668,40.793762 
	C471.284668,42.763256 471.284668,44.165623 471.284668,45.969269 
	C465.865417,45.969269 460.608765,45.969269 455.113708,45.969269 
	C455.113708,51.283493 455.113708,56.206539 455.113708,61.596249 
	C462.161194,61.596249 469.239532,61.596249 476.632690,61.596249 
	C476.632690,63.578011 476.632690,65.100983 476.632690,66.828606 
	C467.574860,66.828606 458.643555,66.828606 449.101257,66.828606 
	C449.101257,63.339294 449.101257,59.905739 449.101257,55.975372 
z"/>
<path fill="#1D1D1D" opacity="1.000000" stroke="none" 
	d="
M496.327271,24.862164 
	C492.482758,25.543983 489.967773,27.208693 489.662079,30.956915 
	C489.324646,35.093689 491.879120,37.400875 495.287811,38.901302 
	C498.475220,40.304340 501.840271,41.320621 504.972717,42.828022 
	C511.728424,46.079006 514.659424,50.707996 513.871033,56.372204 
	C513.083374,62.031788 508.898132,66.002235 502.017731,67.617172 
	C493.648285,69.581604 485.538055,65.150276 482.410919,56.626484 
	C483.569031,55.947136 484.786011,55.233257 486.267395,54.364262 
	C486.819702,55.194176 487.258423,55.815701 487.658844,56.460976 
	C491.432281,62.541874 497.471924,64.525833 503.449524,61.640759 
	C509.193024,58.868664 509.905731,51.899410 504.580170,48.382870 
	C501.987122,46.670605 498.869690,45.763580 496.024078,44.419125 
	C493.630310,43.288136 491.073792,42.344398 488.958618,40.809032 
	C481.409271,35.329033 482.622467,24.829567 491.118439,21.012669 
	C499.441956,17.273237 507.339722,20.127016 512.396973,29.024601 
	C511.293488,29.780039 510.155823,30.558870 508.819733,31.473551 
	C505.677673,27.305315 502.355316,23.853678 496.327271,24.862164 
z"/>
<path fill="#1C1C1C" opacity="1.000000" stroke="none" 
	d="
M404.157471,37.363388 
	C410.575714,19.790253 429.303284,13.914090 442.288116,25.282705 
	C441.412598,26.411627 440.526093,27.554682 439.649689,28.684727 
	C430.350769,22.915489 420.540009,22.852213 412.969940,32.409801 
	C407.506622,39.307545 408.100098,49.140644 413.922791,55.838669 
	C420.389954,63.277973 428.908356,64.145332 439.494537,58.142132 
	C440.450043,59.198025 441.497650,60.355652 442.537567,61.504810 
	C436.474030,68.047646 426.328735,69.443344 417.187134,65.174034 
	C406.943176,60.389896 402.273651,50.630817 404.157471,37.363388 
z"/>
<path fill="#191919" opacity="1.000000" stroke="none" 
	d="
M304.006531,20.683762 
	C313.368439,23.600737 317.127136,29.045626 316.100281,37.739956 
	C315.045746,46.669033 309.897491,49.261234 290.454651,50.408955 
	C290.454651,55.714828 290.454651,61.097412 290.454651,66.739838 
	C288.356384,66.739838 286.803497,66.739838 285.052795,66.739838 
	C285.052795,51.282333 285.052795,35.931988 285.052795,20.564236 
	C291.410583,20.564236 297.507507,20.564236 304.006531,20.683762 
M310.546356,37.802170 
	C311.463226,27.406446 304.562012,23.367538 290.457886,26.155573 
	C290.457886,32.366634 290.457886,38.602402 290.457886,45.008003 
	C294.388916,45.008003 298.048767,45.230244 301.669495,44.949001 
	C305.747711,44.632221 308.978577,42.784515 310.546356,37.802170 
z"/>
<path fill="#1A1A1A" opacity="1.000000" stroke="none" 
	d="
M220.672195,23.285809 
	C220.032852,22.292412 219.614120,21.596073 219.094208,20.731466 
	C222.853775,19.294485 225.234833,20.230330 227.308990,23.568979 
	C230.725311,29.067978 234.598038,34.283432 238.639252,40.141560 
	C242.517761,34.563114 246.414383,29.311142 249.904068,23.801430 
	C251.861069,20.711630 254.128220,19.349205 258.537079,20.637970 
	C255.972809,24.379261 253.848404,28.255259 250.996796,31.490217 
	C243.199402,40.335827 239.658966,50.335350 241.452789,62.103043 
	C241.626022,63.239532 241.470352,64.429993 241.423584,65.593643 
	C241.410873,65.909409 241.237915,66.218727 241.061783,66.772118 
	C240.369568,66.846161 239.584518,66.963615 238.795456,67.005196 
	C237.995697,67.047333 237.192001,67.014481 236.237778,67.014481 
	C236.122971,66.137260 235.883347,65.477318 235.979706,64.870750 
	C238.188477,50.969212 233.868881,39.177887 224.567154,28.914145 
	C223.130585,27.328987 222.107254,25.369324 220.672195,23.285809 
z"/>
<path fill="#121212" opacity="1.000000" stroke="none" 
	d="
M328.120422,46.993614 
	C328.120361,52.105087 328.120361,56.717865 328.120361,61.657852 
	C335.169525,61.657852 341.761108,61.657852 348.689697,61.657852 
	C348.689697,63.517147 348.689697,65.042679 348.689697,66.787766 
	C340.261505,66.787766 331.845215,66.787766 323.094696,66.787766 
	C323.094696,51.438770 323.094696,36.098167 323.094696,20.427393 
	C324.516327,20.319059 325.933868,20.211035 328.120514,20.044403 
	C328.120514,29.019497 328.120514,37.757210 328.120422,46.993614 
z"/>
<path fill="#F9F9F9" opacity="1.000000" stroke="none" 
	d="
M380.473358,37.536217 
	C382.467468,42.089676 384.267578,46.315781 386.130249,50.688747 
	C385.329437,50.901649 384.890137,51.118645 384.450073,51.120300 
	C378.479553,51.142788 372.508881,51.135410 365.855347,51.135410 
	C369.216583,43.402290 372.399384,36.079609 376.106628,27.550367 
	C377.792511,31.452591 379.035919,34.330727 380.473358,37.536217 
z"/>
<path fill="#F9F9F9" opacity="1.000000" stroke="none" 
	d="
M310.404999,38.167435 
	C308.978577,42.784515 305.747711,44.632221 301.669495,44.949001 
	C298.048767,45.230244 294.388916,45.008003 290.457886,45.008003 
	C290.457886,38.602402 290.457886,32.366634 290.457886,26.155573 
	C304.562012,23.367538 311.463226,27.406446 310.404999,38.167435 
z"/>
</svg>