<svg version="1.1" id="Layer_1" xmlns="http://www.w3.org/2000/svg" xmlns:xlink="http://www.w3.org/1999/xlink" x="0px" y="0px"
	 width="100%" viewBox="0 0 566 129" enable-background="new 0 0 566 129" xml:space="preserve">
<path fill="#010102" opacity="1.000000" stroke="none" 
	d="
M416.000000,130.000000 
	C277.333344,130.000000 139.166672,130.000000 1.000000,130.000000 
	C1.000000,87.000000 1.000000,44.000000 1.000000,1.000000 
	C189.666672,1.000000 378.333344,1.000000 567.000000,1.000000 
	C567.000000,44.000000 567.000000,87.000000 567.000000,130.000000 
	C516.833313,130.000000 466.666656,130.000000 416.000000,130.000000 
M45.960033,69.785141 
	C46.009907,70.509239 46.059776,71.233337 46.057663,72.895836 
	C46.024612,75.368233 45.509945,77.952461 46.052940,80.291107 
	C47.429958,86.221741 49.281239,92.042244 51.190102,98.557076 
	C53.357098,99.766029 55.524094,100.974991 58.344135,102.746078 
	C63.593536,103.532761 66.634018,99.778526 70.476830,97.257446 
	C70.689316,97.436470 70.873566,97.640938 71.081657,98.625870 
	C72.536133,102.905846 75.792694,104.605591 80.699265,105.194206 
	C85.112305,109.285004 90.472763,109.406731 96.765465,108.983459 
	C104.426300,107.826904 106.358788,104.869041 106.269249,94.478210 
	C108.330414,93.292305 110.431732,92.169724 112.438240,90.897614 
	C113.718109,90.086174 114.857597,89.053299 116.690605,87.828720 
	C119.402817,85.824905 122.403679,84.112602 124.775055,81.764565 
	C133.084442,73.536926 131.562210,63.831760 122.639549,60.443768 
	C122.019463,59.243629 121.399368,58.043495 120.848289,56.042583 
	C122.127594,46.624428 121.188141,37.704681 114.802582,29.346304 
	C112.539780,28.259897 110.276970,27.173489 107.234367,25.998064 
	C104.856606,27.012363 102.478844,28.026661 99.487282,29.202429 
	C98.671120,29.850769 97.854958,30.499109 96.560760,30.981840 
	C96.399902,30.931246 96.239037,30.880651 96.001869,30.205036 
	C93.983147,28.458084 91.964424,26.711134 89.323608,24.636621 
	C88.064743,24.011114 86.864464,23.182081 85.535645,22.799595 
	C82.037468,21.792677 78.483406,20.979876 74.079330,20.014061 
	C63.058159,19.950008 59.832333,23.169374 60.985237,33.032974 
	C61.098747,34.004120 60.995567,35.000595 60.286900,36.002739 
	C58.469475,37.262882 56.652050,38.523029 54.039482,39.864594 
	C51.102291,41.279705 48.165096,42.694817 44.630840,44.453384 
	C43.090359,46.151329 41.407581,47.742088 40.033905,49.565685 
	C33.917191,57.685814 35.595825,63.870544 45.186886,68.504784 
	C45.386383,68.761131 45.639229,68.943535 45.960033,69.785141 
M211.529404,58.501251 
	C211.529404,52.426777 211.529404,46.352303 211.529404,40.346420 
	C205.447708,39.995953 205.456223,40.000046 203.304489,44.478786 
	C199.344833,52.720638 195.390213,60.964981 191.400604,69.192329 
	C189.633392,72.836609 187.786057,76.442039 185.702087,80.611298 
	C179.612900,68.013077 173.737259,56.256157 168.267593,44.313316 
	C166.468033,40.384033 164.268555,39.133106 160.290863,40.622017 
	C160.290863,56.850540 160.290863,72.932846 160.290863,89.053719 
	C162.406433,89.053719 164.283020,89.053719 166.598633,89.053719 
	C166.598633,78.172379 166.598633,67.649529 166.598633,57.126678 
	C168.338776,58.591469 169.339020,60.219128 170.160583,61.932465 
	C173.970062,69.877029 177.636826,77.892143 181.589798,85.763931 
	C182.340134,87.258095 184.273315,89.294098 185.449005,89.164169 
	C187.083008,88.983597 189.126282,87.305489 189.933212,85.726219 
	C193.791122,78.175911 197.267685,70.431480 200.933472,62.781776 
	C201.861252,60.845657 202.986206,59.004028 204.020554,57.118984 
	C204.438095,57.263180 204.855652,57.407379 205.273193,57.551575 
	C205.273193,68.095657 205.273193,78.639732 205.273193,89.154205 
	C207.609238,89.154205 209.371170,89.154205 211.529388,89.154205 
	C211.529388,79.089012 211.529388,69.294968 211.529404,58.501251 
M398.633575,67.750633 
	C394.902863,59.423653 391.269928,51.049953 387.337311,42.819462 
	C386.738739,41.566723 384.786774,40.359104 383.394196,40.278297 
	C382.287384,40.214073 380.554810,41.658867 379.998444,42.852463 
	C375.578979,52.334152 371.367157,61.912792 367.106567,71.468346 
	C364.512970,77.285225 361.945892,83.113930 359.425812,88.804321 
	C366.340729,91.591011 367.300690,86.556786 368.576569,82.603844 
	C369.717896,79.067848 371.433441,77.516701 375.324371,77.830750 
	C379.955383,78.204529 384.705872,78.411278 389.284271,77.795525 
	C395.158783,77.005478 398.380981,79.315392 399.651428,84.746483 
	C400.726257,89.341293 403.439484,90.416199 408.040161,88.947464 
	C404.952148,82.032669 401.922028,75.247551 398.633575,67.750633 
M463.999451,89.474365 
	C472.601562,89.474365 481.203705,89.474365 489.967590,89.474365 
	C489.967590,87.278725 489.967590,85.666130 489.967590,83.501999 
	C482.258759,83.501999 474.702057,83.501999 467.101044,83.501999 
	C467.101044,77.873436 467.101044,72.801193 467.101044,67.313126 
	C472.991089,67.313126 478.583130,67.313126 484.165070,67.313126 
	C484.165070,65.298798 484.165070,63.708229 484.165070,61.846844 
	C478.459473,61.846844 473.025085,61.846844 467.207367,61.846844 
	C467.207367,56.544468 467.207367,51.512516 467.207367,45.954224 
	C474.597809,45.954224 481.836609,45.954224 489.144409,45.954224 
	C489.144409,43.707188 489.144409,41.986576 489.144409,40.304714 
	C479.517181,40.304714 470.242523,40.304714 460.536316,40.304714 
	C460.536316,56.141098 460.503082,71.765991 460.645142,87.389275 
	C460.651550,88.091125 462.247375,88.778526 463.999451,89.474365 
M507.250275,83.617584 
	C504.742065,81.342148 502.233887,79.066719 499.196503,76.311211 
	C498.424530,76.707855 496.882507,77.500183 495.412109,78.255684 
	C499.028625,90.112633 513.881165,93.736961 523.663513,87.096268 
	C530.697693,82.321198 531.245422,72.238785 524.567444,66.901955 
	C521.404968,64.374573 517.315857,62.992470 513.611023,61.163380 
	C511.387329,60.065567 508.535309,59.623730 506.984833,57.945515 
	C505.295380,56.116901 503.616577,52.938690 504.087250,50.829529 
	C504.561401,48.704777 507.400055,46.269375 509.696899,45.551605 
	C515.841858,43.631260 520.084167,47.181953 523.399597,52.189133 
	C524.999451,51.237942 526.373169,50.421185 527.728455,49.615387 
	C523.048645,40.604279 515.690063,37.474144 506.372864,40.263275 
	C501.477783,41.728634 498.225739,44.899170 497.375854,49.919956 
	C496.533417,54.896809 498.061890,59.374020 502.621155,61.921516 
	C507.081024,64.413475 511.935730,66.187523 516.533203,68.447464 
	C521.632141,70.953926 523.596375,74.615234 522.323853,78.728622 
	C521.125122,82.603889 516.289612,85.254761 511.381744,84.661095 
	C510.231201,84.521927 509.107086,84.164162 507.250275,83.617584 
M287.131531,86.052017 
	C286.899689,91.910286 290.687836,88.770485 293.561035,89.226921 
	C293.561035,83.172729 293.561035,77.618500 293.561035,72.179237 
	C298.642548,71.864357 303.325226,71.984123 307.852753,71.203682 
	C315.930847,69.811211 320.691620,64.128525 320.847076,56.541584 
	C321.012238,48.482594 316.571350,41.983994 308.501862,40.859619 
	C301.585144,39.895863 294.427643,40.660046 287.131348,40.660046 
	C287.131348,55.578865 287.131348,70.362823 287.131531,86.052017 
M449.720123,80.047340 
	C448.731720,80.655029 447.781219,81.337860 446.749023,81.858749 
	C436.957977,86.799782 425.294403,83.027496 420.798279,73.490173 
	C415.846069,62.985287 420.199127,51.397388 430.601471,46.780861 
	C437.803925,43.584431 444.150696,45.571621 450.473724,49.629562 
	C451.708649,48.182186 452.838562,46.857861 453.961395,45.541840 
	C443.557312,36.311527 428.453552,37.440197 418.813568,47.861687 
	C409.519623,57.909103 410.222046,73.421822 420.416718,83.266220 
	C429.512024,92.049026 445.289185,92.331650 453.906036,83.725174 
	C453.580322,83.224571 453.303833,82.622246 452.869965,82.171318 
	C452.075745,81.345863 451.188538,80.609894 449.720123,80.047340 
M228.837784,56.696392 
	C238.654053,65.773048 235.107025,77.873482 235.825623,89.104538 
	C238.023941,89.104538 239.911240,89.104538 241.899490,89.104538 
	C241.899490,82.950287 241.605316,77.109520 242.022491,71.320015 
	C242.233948,68.385376 243.174179,65.188805 244.747528,62.725456 
	C249.546249,55.212242 254.812439,47.997612 259.986542,40.537251 
	C255.237534,39.208359 252.430069,40.565666 250.095169,44.442375 
	C246.776947,49.951790 242.805832,55.067974 238.806320,60.792034 
	C234.778671,55.016014 230.803635,49.928558 227.535263,44.421696 
	C225.195526,40.479473 222.338226,39.277077 217.686127,40.497112 
	C221.317535,45.784943 224.864075,50.949200 228.837784,56.696392 
M327.145355,56.502876 
	C327.145355,67.300377 327.145355,78.097878 327.145355,89.143509 
	C336.635895,89.143509 345.839172,89.143509 355.382904,89.143509 
	C355.281799,87.095062 355.196960,85.376183 355.095459,83.319168 
	C347.634949,83.319168 340.706848,83.319168 333.293762,83.319168 
	C333.293762,68.749153 333.293762,54.539043 333.293762,40.355209 
	C331.027893,40.355209 329.275421,40.355209 327.145355,40.355209 
	C327.145355,45.574837 327.145355,50.539974 327.145355,56.502876 
z"/>
<path fill="#F3F3F5" opacity="1.000000" stroke="none" 
	d="
M211.529388,59.001091 
	C211.529388,69.294968 211.529388,79.089012 211.529388,89.154205 
	C209.371170,89.154205 207.609238,89.154205 205.273193,89.154205 
	C205.273193,78.639732 205.273193,68.095657 205.273193,57.551575 
	C204.855652,57.407379 204.438095,57.263180 204.020554,57.118984 
	C202.986206,59.004028 201.861252,60.845657 200.933472,62.781776 
	C197.267685,70.431480 193.791122,78.175911 189.933212,85.726219 
	C189.126282,87.305489 187.083008,88.983597 185.449005,89.164169 
	C184.273315,89.294098 182.340134,87.258095 181.589798,85.763931 
	C177.636826,77.892143 173.970062,69.877029 170.160583,61.932465 
	C169.339020,60.219128 168.338776,58.591469 166.598633,57.126678 
	C166.598633,67.649529 166.598633,78.172379 166.598633,89.053719 
	C164.283020,89.053719 162.406433,89.053719 160.290863,89.053719 
	C160.290863,72.932846 160.290863,56.850540 160.290863,40.622017 
	C164.268555,39.133106 166.468033,40.384033 168.267593,44.313316 
	C173.737259,56.256157 179.612900,68.013077 185.702087,80.611298 
	C187.786057,76.442039 189.633392,72.836609 191.400604,69.192329 
	C195.390213,60.964981 199.344833,52.720638 203.304489,44.478786 
	C205.456223,40.000046 205.447708,39.995953 211.529404,40.346420 
	C211.529404,46.352303 211.529404,52.426777 211.529388,59.001091 
z"/>
<path fill="#F2F2F4" opacity="1.000000" stroke="none" 
	d="
M398.762756,68.106537 
	C401.922028,75.247551 404.952148,82.032669 408.040161,88.947464 
	C403.439484,90.416199 400.726257,89.341293 399.651428,84.746483 
	C398.380981,79.315392 395.158783,77.005478 389.284271,77.795525 
	C384.705872,78.411278 379.955383,78.204529 375.324371,77.830750 
	C371.433441,77.516701 369.717896,79.067848 368.576569,82.603844 
	C367.300690,86.556786 366.340729,91.591011 359.425812,88.804321 
	C361.945892,83.113930 364.512970,77.285225 367.106567,71.468346 
	C371.367157,61.912792 375.578979,52.334152 379.998444,42.852463 
	C380.554810,41.658867 382.287384,40.214073 383.394196,40.278297 
	C384.786774,40.359104 386.738739,41.566723 387.337311,42.819462 
	C391.269928,51.049953 394.902863,59.423653 398.762756,68.106537 
M392.105560,67.382927 
	C389.406647,61.347675 386.707733,55.312424 383.688080,48.559891 
	C379.997925,56.922276 376.643860,64.522980 373.156799,72.425186 
	C380.341919,72.425186 386.913788,72.425186 393.929901,72.425186 
	C393.338959,70.792732 392.852142,69.447868 392.105560,67.382927 
z"/>
<path fill="#F7F7F8" opacity="1.000000" stroke="none" 
	d="
M463.551178,89.473511 
	C462.247375,88.778526 460.651550,88.091125 460.645142,87.389275 
	C460.503082,71.765991 460.536316,56.141098 460.536316,40.304714 
	C470.242523,40.304714 479.517181,40.304714 489.144409,40.304714 
	C489.144409,41.986576 489.144409,43.707188 489.144409,45.954224 
	C481.836609,45.954224 474.597809,45.954224 467.207367,45.954224 
	C467.207367,51.512516 467.207367,56.544468 467.207367,61.846844 
	C473.025085,61.846844 478.459473,61.846844 484.165070,61.846844 
	C484.165070,63.708229 484.165070,65.298798 484.165070,67.313126 
	C478.583130,67.313126 472.991089,67.313126 467.101044,67.313126 
	C467.101044,72.801193 467.101044,77.873436 467.101044,83.501999 
	C474.702057,83.501999 482.258759,83.501999 489.967590,83.501999 
	C489.967590,85.666130 489.967590,87.278725 489.967590,89.474365 
	C481.203705,89.474365 472.601562,89.474365 463.551178,89.473511 
z"/>
<path fill="#F0F0F2" opacity="1.000000" stroke="none" 
	d="
M507.610535,83.762276 
	C509.107086,84.164162 510.231201,84.521927 511.381744,84.661095 
	C516.289612,85.254761 521.125122,82.603889 522.323853,78.728622 
	C523.596375,74.615234 521.632141,70.953926 516.533203,68.447464 
	C511.935730,66.187523 507.081024,64.413475 502.621155,61.921516 
	C498.061890,59.374020 496.533417,54.896809 497.375854,49.919956 
	C498.225739,44.899170 501.477783,41.728634 506.372864,40.263275 
	C515.690063,37.474144 523.048645,40.604279 527.728455,49.615387 
	C526.373169,50.421185 524.999451,51.237942 523.399597,52.189133 
	C520.084167,47.181953 515.841858,43.631260 509.696899,45.551605 
	C507.400055,46.269375 504.561401,48.704777 504.087250,50.829529 
	C503.616577,52.938690 505.295380,56.116901 506.984833,57.945515 
	C508.535309,59.623730 511.387329,60.065567 513.611023,61.163380 
	C517.315857,62.992470 521.404968,64.374573 524.567444,66.901955 
	C531.245422,72.238785 530.697693,82.321198 523.663513,87.096268 
	C513.881165,93.736961 499.028625,90.112633 495.412109,78.255684 
	C496.882507,77.500183 498.424530,76.707855 499.196503,76.311211 
	C502.233887,79.066719 504.742065,81.342148 507.610535,83.762276 
z"/>
<path fill="#EFF0F2" opacity="1.000000" stroke="none" 
	d="
M287.131439,85.599403 
	C287.131348,70.362823 287.131348,55.578865 287.131348,40.660046 
	C294.427643,40.660046 301.585144,39.895863 308.501862,40.859619 
	C316.571350,41.983994 321.012238,48.482594 320.847076,56.541584 
	C320.691620,64.128525 315.930847,69.811211 307.852753,71.203682 
	C303.325226,71.984123 298.642548,71.864357 293.561035,72.179237 
	C293.561035,77.618500 293.561035,83.172729 293.561035,89.226921 
	C290.687836,88.770485 286.899689,91.910286 287.131439,85.599403 
M295.815216,45.915321 
	C294.990326,46.675514 293.476990,47.412296 293.450195,48.199635 
	C293.248932,54.118057 293.340546,60.046444 293.340546,66.457993 
	C298.226654,66.210373 302.579285,66.400658 306.772858,65.673676 
	C312.063873,64.756439 314.792816,60.866985 314.629791,55.736736 
	C314.465759,50.575096 312.008514,47.453331 306.647919,46.487831 
	C303.416412,45.905796 300.049744,46.074104 295.815216,45.915321 
z"/>
<path fill="#EFF0F2" opacity="1.000000" stroke="none" 
	d="
M450.030121,79.941971 
	C451.188538,80.609894 452.075745,81.345863 452.869965,82.171318 
	C453.303833,82.622246 453.580322,83.224571 453.906036,83.725174 
	C445.289185,92.331650 429.512024,92.049026 420.416718,83.266220 
	C410.222046,73.421822 409.519623,57.909103 418.813568,47.861687 
	C428.453552,37.440197 443.557312,36.311527 453.961395,45.541840 
	C452.838562,46.857861 451.708649,48.182186 450.473724,49.629562 
	C444.150696,45.571621 437.803925,43.584431 430.601471,46.780861 
	C420.199127,51.397388 415.846069,62.985287 420.798279,73.490173 
	C425.294403,83.027496 436.957977,86.799782 446.749023,81.858749 
	C447.781219,81.337860 448.731720,80.655029 450.030121,79.941971 
z"/>
<path fill="#F2F2F4" opacity="1.000000" stroke="none" 
	d="
M228.624207,56.404922 
	C224.864075,50.949200 221.317535,45.784943 217.686127,40.497112 
	C222.338226,39.277077 225.195526,40.479473 227.535263,44.421696 
	C230.803635,49.928558 234.778671,55.016014 238.806320,60.792034 
	C242.805832,55.067974 246.776947,49.951790 250.095169,44.442375 
	C252.430069,40.565666 255.237534,39.208359 259.986542,40.537251 
	C254.812439,47.997612 249.546249,55.212242 244.747528,62.725456 
	C243.174179,65.188805 242.233948,68.385376 242.022491,71.320015 
	C241.605316,77.109520 241.899490,82.950287 241.899490,89.104538 
	C239.911240,89.104538 238.023941,89.104538 235.825623,89.104538 
	C235.107025,77.873482 238.654053,65.773048 228.624207,56.404922 
z"/>
<path fill="#F6F6F7" opacity="1.000000" stroke="none" 
	d="
M327.145355,56.003994 
	C327.145355,50.539974 327.145355,45.574837 327.145355,40.355209 
	C329.275421,40.355209 331.027893,40.355209 333.293762,40.355209 
	C333.293762,54.539043 333.293762,68.749153 333.293762,83.319168 
	C340.706848,83.319168 347.634949,83.319168 355.095459,83.319168 
	C355.196960,85.376183 355.281799,87.095062 355.382904,89.143509 
	C345.839172,89.143509 336.635895,89.143509 327.145355,89.143509 
	C327.145355,78.097878 327.145355,67.300377 327.145355,56.003994 
z"/>
<path fill="#01F199" opacity="1.000000" stroke="none" 
	d="
M60.992966,35.985313 
	C60.995567,35.000595 61.098747,34.004120 60.985237,33.032974 
	C59.832333,23.169374 63.058159,19.950008 74.535416,20.426346 
	C74.995605,21.838982 74.999710,22.839333 74.587540,23.898811 
	C71.505058,24.405878 68.135094,22.951389 66.461327,27.007385 
	C66.482445,28.874166 66.740479,30.456017 67.022781,32.326782 
	C67.307869,33.105194 67.568687,33.594685 67.956337,34.420532 
	C69.291283,36.709209 70.499413,38.661526 71.351730,40.827194 
	C70.009094,42.688042 69.022263,44.335545 67.756996,45.846657 
	C66.611420,44.625214 65.744286,43.540169 64.822433,42.098045 
	C63.509464,39.822422 62.251217,37.903866 60.992966,35.985313 
z"/>
<path fill="#03A2EB" opacity="1.000000" stroke="none" 
	d="
M123.017799,61.060955 
	C131.562210,63.831760 133.084442,73.536926 124.775055,81.764565 
	C122.403679,84.112602 119.402817,85.824905 116.094650,87.827240 
	C115.696045,86.905853 115.893394,85.985939 116.356720,84.868332 
	C118.931847,81.932503 121.642609,79.435051 123.460175,76.402290 
	C126.525116,71.288216 125.490906,68.763748 120.051712,65.664536 
	C120.007835,63.880405 119.993660,62.509720 120.357300,61.098797 
	C121.496010,61.059357 122.256905,61.060154 123.017799,61.060955 
z"/>
<path fill="#02EE98" opacity="1.000000" stroke="none" 
	d="
M71.029579,97.870857 
	C70.873566,97.640938 70.689316,97.436470 70.252228,96.709778 
	C69.642944,92.633537 69.258263,89.104958 68.877914,85.403465 
	C68.882256,85.230545 69.097130,84.959419 69.341766,84.741241 
	C72.353561,81.260132 75.120728,77.997200 77.924362,75.168488 
	C78.351357,77.510216 78.741875,79.417725 78.949471,81.612770 
	C71.799904,89.570595 72.283180,92.724373 81.064278,97.335297 
	C81.574478,97.603203 81.824532,98.366524 81.994614,99.259094 
	C78.205582,99.036217 74.617577,98.453537 71.029579,97.870857 
z"/>
<path fill="#03A2EB" opacity="1.000000" stroke="none" 
	d="
M105.860115,95.063187 
	C106.358788,104.869041 104.426300,107.826904 96.382607,108.542580 
	C95.995049,107.109802 95.990341,106.117897 96.242889,104.993195 
	C97.131721,104.455566 97.763321,104.050728 98.730972,103.486893 
	C99.582344,101.254150 100.097664,99.180428 100.646759,96.779572 
	C100.091179,95.961319 99.501816,95.470192 98.871033,94.631256 
	C97.924721,92.655708 97.019806,91.027977 96.516403,89.190132 
	C97.744164,87.053383 98.570404,85.126740 99.673126,83.437119 
	C101.290802,84.837120 102.632004,86.000099 103.954193,87.453583 
	C104.335701,88.524918 104.736221,89.305756 105.010567,90.364975 
	C105.209633,92.116631 105.534874,93.589912 105.860115,95.063187 
z"/>
<path fill="#03E794" opacity="1.000000" stroke="none" 
	d="
M44.965015,68.087433 
	C35.595825,63.870544 33.917191,57.685814 40.033905,49.565685 
	C41.407581,47.742088 43.090359,46.151329 45.201485,44.409763 
	C46.310764,44.629478 46.849400,44.892818 47.220242,45.472504 
	C45.718678,48.049965 44.253803,50.245235 43.078300,52.585835 
	C40.597275,57.525917 41.341568,59.817047 46.072147,63.111481 
	C46.039188,64.995155 46.035122,66.443390 45.764290,67.939171 
	C45.320023,68.020294 45.142521,68.053864 44.965015,68.087433 
z"/>
<path fill="#03C3BF" opacity="1.000000" stroke="none" 
	d="
M68.873581,85.576385 
	C69.258263,89.104958 69.642944,92.633537 70.089073,96.582497 
	C66.634018,99.778526 63.593536,103.532761 57.868191,102.206116 
	C57.250744,100.431129 57.109241,99.196098 57.326225,97.842941 
	C60.164093,95.842209 62.643482,93.959602 65.397156,91.881004 
	C66.738823,89.648804 67.806206,87.612595 68.873581,85.576385 
z"/>
<path fill="#0798DC" opacity="1.000000" stroke="none" 
	d="
M114.990601,29.966084 
	C121.188141,37.704681 122.127594,46.624428 120.586044,56.593849 
	C119.982010,57.293694 119.640228,57.442268 119.298447,57.590843 
	C119.269562,57.436157 119.240730,57.281460 119.211777,57.126789 
	C118.192749,51.682602 117.173706,46.238415 116.054520,40.476818 
	C115.249794,38.528248 114.545204,36.897087 113.913223,34.882126 
	C114.320755,32.987576 114.655678,31.476830 114.990601,29.966084 
z"/>
<path fill="#06D496" opacity="1.000000" stroke="none" 
	d="
M47.388031,45.156155 
	C46.849400,44.892818 46.310764,44.629478 45.500015,44.238037 
	C48.165096,42.694817 51.102291,41.279705 54.491547,40.240997 
	C55.332214,42.520393 55.720818,44.423382 55.992249,46.639259 
	C53.609409,52.289543 51.343742,57.626949 48.661232,62.962532 
	C47.694958,62.880409 47.145531,62.800110 46.694580,62.334915 
	C48.605995,55.670624 50.418938,49.391232 52.416290,42.473106 
	C50.427658,43.534229 48.907845,44.345192 47.388031,45.156155 
z"/>
<path fill="#05DE8E" opacity="1.000000" stroke="none" 
	d="
M50.942604,97.906853 
	C49.281239,92.042244 47.429958,86.221741 46.052940,80.291107 
	C45.509945,77.952461 46.024612,75.368233 46.421207,72.598541 
	C47.504631,75.511238 48.224514,78.721237 48.936867,82.326111 
	C50.019779,86.339493 51.110218,89.957977 52.051872,93.929161 
	C51.582924,95.490189 51.262764,96.698517 50.942604,97.906853 
z"/>
<path fill="#215E67" opacity="1.000000" stroke="none" 
	d="
M71.055618,98.248367 
	C74.617577,98.453537 78.205582,99.036217 82.261765,99.112991 
	C84.093796,95.694794 86.049873,97.362175 87.917496,98.242096 
	C88.006577,98.944557 88.043594,99.347893 88.050766,99.996864 
	C88.020920,100.242493 87.963142,100.732964 87.582672,100.815323 
	C85.154930,101.899773 83.107666,102.901871 80.842392,104.016464 
	C80.309052,104.287132 80.114922,104.538795 80.041985,104.883942 
	C75.792694,104.605591 72.536133,102.905846 71.055618,98.248367 
z"/>
<path fill="#01DDB0" opacity="1.000000" stroke="none" 
	d="
M97.038795,31.147448 
	C97.854958,30.499109 98.671120,29.850769 100.131577,29.178759 
	C101.546120,30.497782 102.316353,31.840473 103.067764,33.515831 
	C102.366066,34.909935 101.683197,35.971375 100.829308,37.334606 
	C99.550369,39.987431 98.442451,42.338467 97.241142,44.248108 
	C96.399391,41.175648 95.651031,38.544575 94.961563,35.584415 
	C95.693237,33.886036 96.366013,32.516743 97.038795,31.147448 
z"/>
<path fill="#03A9E2" opacity="1.000000" stroke="none" 
	d="
M96.799774,31.064644 
	C96.366013,32.516743 95.693237,33.886036 94.728233,35.719048 
	C93.987869,36.481171 93.539726,36.779579 93.005447,36.731785 
	C89.942223,34.848038 86.965134,33.310493 83.778671,31.548323 
	C82.390907,30.612841 81.212509,29.901985 80.423050,29.112530 
	C85.900719,29.632639 90.989441,30.231346 96.078163,30.830055 
	C96.239037,30.880651 96.399902,30.931246 96.799774,31.064644 
z"/>
<path fill="#03CEB2" opacity="1.000000" stroke="none" 
	d="
M56.109421,46.326370 
	C55.720818,44.423382 55.332214,42.520393 54.889118,40.200287 
	C56.652050,38.523029 58.469475,37.262882 60.639931,35.994026 
	C62.251217,37.903866 63.509464,39.822422 64.458832,41.978867 
	C61.469772,43.586632 58.789597,44.956501 56.109421,46.326370 
z"/>
<path fill="#03CEB2" opacity="1.000000" stroke="none" 
	d="
M75.003822,23.839684 
	C74.999710,22.839333 74.995605,21.838982 74.971558,20.464197 
	C78.483406,20.979876 82.037468,21.792677 85.535645,22.799595 
	C86.864464,23.182081 88.064743,24.011114 89.728699,25.102085 
	C89.063011,25.754158 87.992233,25.940767 86.537674,26.056885 
	C82.437195,25.270823 78.720512,24.555252 75.003822,23.839684 
z"/>
<path fill="#00BAE0" opacity="1.000000" stroke="none" 
	d="
M80.370621,105.039078 
	C80.114922,104.538795 80.309052,104.287132 81.265366,104.009621 
	C84.928581,104.225975 87.950813,104.561661 91.387009,104.962624 
	C93.195862,105.060593 94.590752,105.093292 95.985641,105.125992 
	C95.990341,106.117897 95.995049,107.109802 95.997986,108.473648 
	C90.472763,109.406731 85.112305,109.285004 80.370621,105.039078 
z"/>
<path fill="#264B65" opacity="1.000000" stroke="none" 
	d="
M106.064682,94.770699 
	C105.534874,93.589912 105.209633,92.116631 105.385513,90.370651 
	C108.761787,87.934288 111.636948,85.770622 114.707947,83.921829 
	C115.299446,84.513145 115.695099,84.789581 116.090744,85.066025 
	C115.893394,85.985939 115.696045,86.905853 115.779358,87.972740 
	C114.857597,89.053299 113.718109,90.086174 112.438240,90.897614 
	C110.431732,92.169724 108.330414,93.292305 106.064682,94.770699 
z"/>
<path fill="#03C3BF" opacity="1.000000" stroke="none" 
	d="
M103.086594,33.183167 
	C102.316353,31.840473 101.546120,30.497782 100.438477,29.098024 
	C102.478844,28.026661 104.856606,27.012363 107.776680,26.372192 
	C108.535599,28.167046 108.752197,29.587772 108.629654,31.072693 
	C107.199638,31.464497 106.108772,31.792107 104.757896,32.212067 
	C104.027458,32.597332 103.557030,32.890251 103.086594,33.183167 
z"/>
<path fill="#04B8CB" opacity="1.000000" stroke="none" 
	d="
M108.968796,31.008503 
	C108.752197,29.587772 108.535599,28.167046 108.166580,26.416698 
	C110.276970,27.173489 112.539780,28.259897 114.896591,29.656193 
	C114.655678,31.476830 114.320755,32.987576 113.644012,34.695366 
	C111.857719,33.597778 110.413254,32.303139 108.968796,31.008503 
z"/>
<path fill="#264B65" opacity="1.000000" stroke="none" 
	d="
M116.154663,40.794228 
	C117.173706,46.238415 118.192749,51.682602 119.211777,57.126789 
	C119.240730,57.281460 119.269562,57.436157 119.298447,57.590843 
	C119.640228,57.442268 119.982010,57.293694 120.551529,56.994240 
	C121.399368,58.043495 122.019463,59.243629 122.828674,60.752361 
	C122.256905,61.060154 121.496010,61.059357 120.099518,60.953869 
	C118.953369,60.576668 118.442825,60.304157 117.888809,59.589657 
	C116.809517,54.542866 115.773705,49.938061 115.087189,45.100128 
	C115.675880,43.509411 115.915268,42.151821 116.154663,40.794228 
z"/>
<path fill="#264B65" opacity="1.000000" stroke="none" 
	d="
M86.921455,26.127377 
	C87.992233,25.940767 89.063011,25.754158 90.039749,25.265865 
	C91.964424,26.711134 93.983147,28.458084 96.040016,30.517546 
	C90.989441,30.231346 85.900719,29.632639 80.262604,28.875000 
	C79.188126,28.520096 78.663048,28.324123 78.355843,27.806019 
	C81.356300,27.031717 84.138878,26.579546 86.921455,26.127377 
z"/>
<path fill="#04D6A2" opacity="1.000000" stroke="none" 
	d="
M51.066353,98.231964 
	C51.262764,96.698517 51.582924,95.490189 52.378181,94.024887 
	C54.224766,95.165634 55.596252,96.563354 56.967743,97.961075 
	C57.109241,99.196098 57.250744,100.431129 57.541664,101.925049 
	C55.524094,100.974991 53.357098,99.766029 51.066353,98.231964 
z"/>
<path fill="#264B65" opacity="1.000000" stroke="none" 
	d="
M48.944393,81.931229 
	C48.224514,78.721237 47.504631,75.511238 46.447201,72.129341 
	C46.059776,71.233337 46.009907,70.509239 46.105240,69.254868 
	C46.250446,68.724594 46.553368,68.396103 46.851234,68.497398 
	C47.773170,68.705345 48.397240,68.811989 49.021431,69.370758 
	C50.009693,74.198563 50.997841,78.574242 51.665657,82.904037 
	C50.545013,82.549187 49.744701,82.240204 48.944393,81.931229 
z"/>
<path fill="#264B65" opacity="1.000000" stroke="none" 
	d="
M45.075951,68.296112 
	C45.142521,68.053864 45.320023,68.020294 45.889301,68.071037 
	C46.281082,68.155350 46.553368,68.396103 46.553368,68.396103 
	C46.553368,68.396103 46.250446,68.724594 46.097931,68.888290 
	C45.639229,68.943535 45.386383,68.761131 45.075951,68.296112 
z"/>
<path fill="#121318" opacity="1.000000" stroke="none" 
	d="
M392.235413,67.742966 
	C392.852142,69.447868 393.338959,70.792732 393.929901,72.425186 
	C386.913788,72.425186 380.341919,72.425186 373.156799,72.425186 
	C376.643860,64.522980 379.997925,56.922276 383.688080,48.559891 
	C386.707733,55.312424 389.406647,61.347675 392.235413,67.742966 
z"/>
<path fill="#08090B" opacity="1.000000" stroke="none" 
	d="
M296.279510,45.910278 
	C300.049744,46.074104 303.416412,45.905796 306.647919,46.487831 
	C312.008514,47.453331 314.465759,50.575096 314.629791,55.736736 
	C314.792816,60.866985 312.063873,64.756439 306.772858,65.673676 
	C302.579285,66.400658 298.226654,66.210373 293.340546,66.457993 
	C293.340546,60.046444 293.248932,54.118057 293.450195,48.199635 
	C293.476990,47.412296 294.990326,46.675514 296.279510,45.910278 
z"/>
<path fill="#050609" opacity="1.000000" stroke="none" 
	d="
M83.988037,31.772951 
	C86.965134,33.310493 89.942223,34.848038 92.873199,37.050629 
	C92.381874,39.236992 91.936676,40.758308 91.238007,42.484245 
	C90.623833,43.486706 90.263115,44.284550 89.623215,45.218582 
	C87.804619,46.846806 86.265213,48.338837 84.393448,49.846100 
	C83.400955,49.845840 82.740829,49.830345 81.926453,49.531708 
	C80.171082,48.166130 78.569946,47.083694 76.842476,45.701035 
	C75.046600,43.805157 73.377068,42.209499 71.707535,40.613842 
	C70.499413,38.661526 69.291283,36.709209 68.330093,34.261311 
	C73.714027,33.101471 78.851028,32.437210 83.988037,31.772951 
z"/>
<path fill="#05080B" opacity="1.000000" stroke="none" 
	d="
M55.992249,46.639256 
	C58.789597,44.956501 61.469772,43.586632 64.513550,42.335938 
	C65.744286,43.540169 66.611420,44.625214 67.820007,46.137245 
	C68.706879,47.379002 69.252296,48.193771 69.853027,49.411469 
	C70.189850,52.502174 70.471359,55.189949 70.401093,57.933754 
	C67.342506,59.057526 64.635689,60.125263 61.619728,61.178139 
	C60.534500,61.459400 59.758408,61.755531 58.598736,62.026581 
	C57.750309,62.197464 57.285458,62.393425 56.566692,62.510479 
	C55.815460,62.594368 55.318146,62.757168 54.413403,62.865555 
	C52.363346,62.862217 50.720711,62.913288 49.078079,62.964355 
	C51.343742,57.626949 53.609409,52.289543 55.992249,46.639256 
z"/>
<path fill="#06080C" opacity="1.000000" stroke="none" 
	d="
M86.537674,26.056885 
	C84.138878,26.579546 81.356300,27.031717 78.345085,27.794655 
	C78.116447,28.105421 78.111107,28.125544 77.704910,28.102814 
	C74.971466,28.811270 72.644226,29.542456 70.272583,30.315250 
	C70.228188,30.356859 70.112152,30.393547 69.710327,30.285482 
	C68.438416,29.025764 67.568329,27.874111 66.698242,26.722458 
	C68.135094,22.951389 71.505058,24.405878 74.587540,23.898811 
	C78.720512,24.555252 82.437195,25.270823 86.537674,26.056885 
z"/>
<path fill="#01E8A2" opacity="1.000000" stroke="none" 
	d="
M69.797714,49.008541 
	C69.252296,48.193771 68.706879,47.379002 68.098450,46.273640 
	C69.022263,44.335545 70.009094,42.688042 71.351730,40.827194 
	C73.377068,42.209499 75.046600,43.805157 76.573364,45.917458 
	C75.612144,48.295090 74.793701,50.156082 73.688980,51.868126 
	C72.201035,50.815632 70.999374,49.912086 69.797714,49.008541 
z"/>
<path fill="#0CA0AF" opacity="1.000000" stroke="none" 
	d="
M83.778671,31.548323 
	C78.851028,32.437210 73.714027,33.101471 68.203262,33.924950 
	C67.568687,33.594685 67.307869,33.105194 67.302048,32.219368 
	C68.408752,31.346539 69.260452,30.870043 70.112152,30.393547 
	C70.112152,30.393547 70.228188,30.356859 70.679840,30.277561 
	C73.458031,29.507357 75.784569,28.816452 78.111107,28.125546 
	C78.111107,28.125544 78.116447,28.105421 78.127205,28.116785 
	C78.663048,28.324123 79.188126,28.520096 79.873657,28.953600 
	C81.212509,29.901985 82.390907,30.612841 83.778671,31.548323 
z"/>
<path fill="#264B65" opacity="1.000000" stroke="none" 
	d="
M69.710327,30.285482 
	C69.260452,30.870043 68.408752,31.346539 67.277786,31.930450 
	C66.740479,30.456017 66.482445,28.874166 66.461327,27.007387 
	C67.568329,27.874111 68.438416,29.025764 69.710327,30.285482 
z"/>
<path fill="#101821" opacity="1.000000" stroke="none" 
	d="
M116.356720,84.868332 
	C115.695099,84.789581 115.299446,84.513145 114.830444,83.669052 
	C114.898399,82.564034 115.039703,82.026672 115.446747,81.213165 
	C116.838692,77.013130 117.964897,73.089241 119.265564,68.892609 
	C119.664658,67.787018 119.889297,66.954163 120.115822,66.102020 
	C120.117706,66.082726 120.081421,66.077988 120.081421,66.077988 
	C125.490906,68.763748 126.525116,71.288216 123.460175,76.402290 
	C121.642609,79.435051 118.931847,81.932503 116.356720,84.868332 
z"/>
<path fill="#00BAE0" opacity="1.000000" stroke="none" 
	d="
M117.932281,60.031643 
	C118.442825,60.304157 118.953369,60.576668 119.721695,60.994106 
	C119.993660,62.509720 120.007835,63.880405 120.051712,65.664536 
	C120.081421,66.077988 120.117706,66.082726 119.830254,66.038757 
	C119.348015,65.987099 119.153236,65.979393 118.663071,65.992462 
	C118.171455,66.034683 117.975220,66.056129 117.424942,66.049973 
	C116.378479,65.865501 115.686073,65.708641 114.886093,65.426712 
	C114.417137,65.181747 114.154922,65.299858 113.625000,65.748970 
	C112.505852,65.883690 111.753578,65.925438 110.999527,65.558945 
	C111.005669,63.271282 111.013588,61.391865 111.200500,59.307808 
	C111.720924,59.008511 112.062340,58.913841 112.811737,58.888939 
	C114.790573,59.316349 116.361427,59.673996 117.932281,60.031643 
z"/>
<path fill="#05080B" opacity="1.000000" stroke="none" 
	d="
M87.865433,97.942978 
	C86.049873,97.362175 84.093796,95.694794 82.462807,98.753189 
	C81.824532,98.366524 81.574478,97.603203 81.064278,97.335297 
	C72.283180,92.724373 71.799904,89.570595 79.240509,81.482819 
	C81.066711,80.100754 82.418968,79.136192 83.956055,78.461945 
	C86.814430,80.807693 89.487968,82.863113 92.290634,85.201118 
	C93.651466,86.789223 94.883179,88.094734 96.114891,89.400246 
	C97.019806,91.027977 97.924721,92.655708 98.487106,94.705284 
	C94.718201,96.065750 91.291817,97.004364 87.865433,97.942978 
z"/>
<path fill="#05080B" opacity="1.000000" stroke="none" 
	d="
M68.877922,85.403465 
	C67.806206,87.612595 66.738823,89.648804 65.115158,91.739319 
	C63.489281,91.193008 62.419693,90.592392 61.218483,89.951843 
	C61.086857,89.911911 61.007866,89.648399 61.005997,89.415771 
	C60.594799,88.775307 60.185471,88.367462 59.526775,87.673874 
	C57.407593,83.836044 55.429192,80.335793 53.700966,76.716095 
	C52.212700,73.598984 53.057049,70.949226 56.330353,69.031784 
	C57.470459,68.982162 58.227367,68.900650 59.357422,68.845123 
	C60.208023,68.731285 60.685474,68.591446 61.536476,68.558815 
	C63.938908,69.021309 65.967796,69.376595 68.264374,69.919510 
	C69.346191,70.419334 70.160309,70.731522 71.034485,71.468414 
	C70.428741,76.248550 69.762939,80.603989 69.097130,84.959419 
	C69.097130,84.959419 68.882256,85.230545 68.877922,85.403465 
z"/>
<path fill="#03A9E2" opacity="1.000000" stroke="none" 
	d="
M69.341766,84.741241 
	C69.762939,80.603989 70.428741,76.248550 71.333817,71.579407 
	C72.380943,71.505432 73.188782,71.745163 74.305542,72.136314 
	C75.704300,72.530067 76.794151,72.772408 77.882645,73.302658 
	C77.883484,73.971802 77.885689,74.353035 77.887886,74.734261 
	C75.120728,77.997200 72.353561,81.260132 69.341766,84.741241 
z"/>
<path fill="#01E8A2" opacity="1.000000" stroke="none" 
	d="
M77.924362,75.168488 
	C77.885689,74.353035 77.883484,73.971802 78.221146,73.273865 
	C79.704498,72.299973 80.847992,71.642799 82.274513,71.208511 
	C83.050499,73.305199 83.543465,75.179016 83.986572,77.336426 
	C83.881546,77.803894 83.826385,77.987762 83.771217,78.171623 
	C82.418968,79.136192 81.066711,80.100754 79.423424,81.195274 
	C78.741875,79.417725 78.351357,77.510216 77.924362,75.168488 
z"/>
<path fill="#05080B" opacity="1.000000" stroke="none" 
	d="
M111.001297,65.967194 
	C111.753578,65.925438 112.505852,65.883690 113.882385,65.789246 
	C114.668983,65.674950 114.831329,65.613358 114.993668,65.551773 
	C115.686073,65.708641 116.378479,65.865501 117.361107,66.408051 
	C116.062660,70.800125 114.473991,74.806503 112.589020,78.987206 
	C109.519539,81.828705 106.746368,84.495888 103.973198,87.163078 
	C102.632004,86.000099 101.290802,84.837120 99.582336,83.156982 
	C98.479370,81.699608 97.743675,80.759407 97.047401,79.430832 
	C96.705826,76.361320 96.324821,73.680191 96.286339,70.921654 
	C99.132339,69.757256 101.635811,68.670265 104.535690,67.551468 
	C106.955154,67.002174 108.978226,66.484688 111.001297,65.967194 
z"/>
<path fill="#01BBD6" opacity="1.000000" stroke="none" 
	d="
M103.954193,87.453583 
	C106.746368,84.495888 109.519539,81.828705 112.789108,79.281906 
	C113.917343,80.097969 114.549171,80.793640 115.181000,81.489304 
	C115.039703,82.026672 114.898399,82.564034 114.634605,83.354172 
	C111.636948,85.770622 108.761787,87.934288 105.511688,90.092270 
	C104.736221,89.305756 104.335701,88.524918 103.954193,87.453583 
z"/>
<path fill="#03A9E2" opacity="1.000000" stroke="none" 
	d="
M97.007973,79.819199 
	C97.743675,80.759407 98.479370,81.699608 99.305862,82.919960 
	C98.570404,85.126740 97.744164,87.053383 96.516403,89.190132 
	C94.883179,88.094734 93.651466,86.789223 92.527458,84.956902 
	C93.460861,82.595261 94.286560,80.760422 95.349007,79.042717 
	C96.059830,79.379631 96.533897,79.599419 97.007973,79.819199 
z"/>
<path fill="#03CEB2" opacity="1.000000" stroke="none" 
	d="
M87.917496,98.242096 
	C91.291817,97.004364 94.718201,96.065750 98.528519,95.053101 
	C99.501816,95.470192 100.091179,95.961319 100.331215,96.706299 
	C98.526352,97.461418 97.070808,97.962692 95.567093,98.472588 
	C95.518906,98.481209 95.460434,98.566139 95.096237,98.599075 
	C92.514900,99.005081 90.297760,99.378159 88.080612,99.751236 
	C88.043594,99.347893 88.006577,98.944557 87.917496,98.242096 
z"/>
<path fill="#264B65" opacity="1.000000" stroke="none" 
	d="
M95.615273,98.463966 
	C97.070808,97.962692 98.526352,97.461418 100.297440,97.033417 
	C100.097664,99.180428 99.582344,101.254150 98.654373,103.316483 
	C98.241730,103.305084 98.014259,103.019531 98.183594,102.677689 
	C100.328369,99.003227 97.510323,99.059898 95.615273,98.463966 
z"/>
<path fill="#264B65" opacity="1.000000" stroke="none" 
	d="
M96.242889,104.993195 
	C94.590752,105.093292 93.195862,105.060593 91.651855,104.715591 
	C93.673241,103.942039 95.843750,103.480789 98.014259,103.019531 
	C98.014259,103.019531 98.241730,103.305084 98.318321,103.475494 
	C97.763321,104.050728 97.131721,104.455566 96.242889,104.993195 
z"/>
<path fill="#101821" opacity="1.000000" stroke="none" 
	d="
M47.220242,45.472504 
	C48.907845,44.345192 50.427658,43.534229 52.416290,42.473106 
	C50.418938,49.391232 48.605995,55.670624 46.575294,62.275375 
	C46.357533,62.600739 46.101044,62.676041 46.101044,62.676041 
	C41.341568,59.817047 40.597275,57.525917 43.078300,52.585835 
	C44.253803,50.245235 45.718678,48.049965 47.220242,45.472504 
z"/>
<path fill="#01E8A2" opacity="1.000000" stroke="none" 
	d="
M46.072147,63.111481 
	C46.101044,62.676041 46.357533,62.600739 46.476818,62.660275 
	C47.145531,62.800110 47.694958,62.880409 48.661232,62.962532 
	C50.720711,62.913288 52.363346,62.862217 54.676010,62.904320 
	C55.837566,62.861458 56.329086,62.725422 56.820610,62.589390 
	C57.285458,62.393425 57.750309,62.197464 58.795250,62.257763 
	C60.249882,62.366085 61.124420,62.218147 62.297951,62.076694 
	C63.076679,62.389854 63.556408,62.696529 64.025993,63.384567 
	C63.064873,65.327820 62.113899,66.889717 61.162926,68.451607 
	C60.685474,68.591446 60.208023,68.731285 59.171715,68.633842 
	C58.074642,68.261124 57.536434,68.125679 56.960464,67.644836 
	C56.215878,64.018799 54.432552,63.659527 52.030777,65.643814 
	C50.898571,66.579216 50.016647,67.817558 49.021317,68.918633 
	C48.397240,68.811989 47.773170,68.705345 46.851234,68.497398 
	C46.553368,68.396103 46.281082,68.155350 46.156067,68.023483 
	C46.035122,66.443390 46.039188,64.995155 46.072147,63.111481 
z"/>
<path fill="#0C151C" opacity="1.000000" stroke="none" 
	d="
M61.350105,89.991768 
	C62.419693,90.592392 63.489281,91.193008 64.840866,91.935318 
	C62.643482,93.959602 60.164093,95.842209 57.326225,97.842941 
	C55.596252,96.563354 54.224766,95.165634 52.526966,93.672195 
	C51.110218,89.957977 50.019779,86.339493 48.936867,82.326111 
	C49.744701,82.240204 50.545013,82.549187 51.885963,83.163483 
	C54.220612,85.642906 55.869686,87.969131 57.895756,89.899704 
	C58.514587,90.489357 60.169617,89.991554 61.350105,89.991768 
z"/>
<path fill="#101821" opacity="1.000000" stroke="none" 
	d="
M116.054520,40.476818 
	C115.915268,42.151821 115.675880,43.509411 115.091057,45.081978 
	C114.745628,45.296951 114.726044,45.266773 114.676285,44.923595 
	C113.396584,43.385010 112.166649,42.189598 110.673935,40.849277 
	C109.613838,39.827717 108.816505,38.951069 107.981720,37.719948 
	C106.968811,35.616890 105.993355,33.868305 105.017906,32.119717 
	C106.108772,31.792107 107.199638,31.464497 108.629654,31.072693 
	C110.413254,32.303139 111.857719,33.597778 113.571396,35.079170 
	C114.545204,36.897087 115.249794,38.528248 116.054520,40.476818 
z"/>
<path fill="#050609" opacity="1.000000" stroke="none" 
	d="
M98.183594,102.677689 
	C95.843750,103.480789 93.673241,103.942039 91.237885,104.650330 
	C87.950813,104.561661 84.928581,104.225975 81.483383,103.897133 
	C83.107666,102.901871 85.154930,101.899773 87.988617,100.872192 
	C91.003510,100.086517 93.231972,99.326324 95.460434,98.566139 
	C95.460434,98.566139 95.518906,98.481209 95.567093,98.472588 
	C97.510323,99.059898 100.328369,99.003227 98.183594,102.677689 
z"/>
<path fill="#264B65" opacity="1.000000" stroke="none" 
	d="
M95.096237,98.599075 
	C93.231972,99.326324 91.003510,100.086517 88.369095,100.789833 
	C87.963142,100.732964 88.020920,100.242493 88.050766,99.996864 
	C90.297760,99.378159 92.514900,99.005081 95.096237,98.599075 
z"/>
<path fill="#06080C" opacity="1.000000" stroke="none" 
	d="
M112.403763,58.819176 
	C112.062340,58.913841 111.720924,59.008511 110.804329,59.281986 
	C107.103378,59.402016 103.860992,59.828331 100.892609,59.114784 
	C98.896744,58.635014 97.288536,56.542637 95.634705,54.739029 
	C96.286530,51.100723 96.810532,47.895111 97.334534,44.689503 
	C98.442451,42.338467 99.550369,39.987431 101.167137,37.315491 
	C102.818298,37.652325 103.960609,38.310070 105.365105,39.169918 
	C109.671608,45.232243 115.514442,50.465755 112.403763,58.819176 
z"/>
<path fill="#01E8A2" opacity="1.000000" stroke="none" 
	d="
M97.241142,44.248108 
	C96.810532,47.895111 96.286530,51.100723 95.468498,55.073376 
	C95.135818,58.224216 95.097160,60.608013 95.039856,62.992325 
	C95.021202,62.992836 94.985207,62.995239 94.730957,63.108936 
	C93.980965,63.473801 93.485207,63.724968 92.992661,63.509201 
	C92.997154,60.917126 93.148071,58.779316 92.969429,56.669411 
	C92.562683,51.865540 91.994225,47.075367 91.491478,42.279625 
	C91.936676,40.758308 92.381874,39.236992 92.959328,37.396832 
	C93.539726,36.779579 93.987869,36.481171 94.669342,36.048134 
	C95.651031,38.544575 96.399391,41.175648 97.241142,44.248108 
z"/>
<path fill="#264B65" opacity="1.000000" stroke="none" 
	d="
M105.102921,38.967812 
	C103.960609,38.310070 102.818298,37.652325 101.338158,37.013699 
	C101.683197,35.971375 102.366066,34.909935 103.067764,33.515831 
	C103.557030,32.890251 104.027458,32.597332 104.757896,32.212067 
	C105.993355,33.868305 106.968811,35.616890 107.668442,37.613510 
	C106.629379,38.230301 105.866150,38.599056 105.102921,38.967812 
z"/>
<path fill="#03A2EB" opacity="1.000000" stroke="none" 
	d="
M105.365105,39.169914 
	C105.866150,38.599056 106.629379,38.230301 107.705887,37.967987 
	C108.816505,38.951069 109.613838,39.827717 110.787369,41.167725 
	C112.351067,42.842979 113.538559,44.054874 114.726044,45.266769 
	C114.726044,45.266773 114.745628,45.296951 114.741760,45.315102 
	C115.773705,49.938061 116.809517,54.542866 117.888809,59.589657 
	C116.361427,59.673996 114.790573,59.316349 112.811737,58.888939 
	C115.514442,50.465755 109.671608,45.232243 105.365105,39.169914 
z"/>
<path fill="#03E794" opacity="1.000000" stroke="none" 
	d="
M61.218483,89.951843 
	C60.169617,89.991554 58.514587,90.489357 57.895756,89.899704 
	C55.869686,87.969131 54.220612,85.642906 52.206295,83.209358 
	C50.997841,78.574242 50.009693,74.198563 49.021431,69.370758 
	C50.016647,67.817558 50.898571,66.579216 52.030777,65.643814 
	C54.432552,63.659527 56.215878,64.018799 56.739254,67.759758 
	C56.282261,68.424850 56.079376,68.684792 55.947151,68.999886 
	C53.057049,70.949226 52.212700,73.598984 53.700966,76.716095 
	C55.429192,80.335793 57.407593,83.836044 59.410767,87.906624 
	C60.032040,88.832870 60.519955,89.240631 61.007866,89.648399 
	C61.007866,89.648399 61.086857,89.911911 61.218483,89.951843 
z"/>
<path fill="#01F199" opacity="1.000000" stroke="none" 
	d="
M91.238007,42.484245 
	C91.994225,47.075367 92.562683,51.865540 92.969429,56.669411 
	C93.148071,58.779316 92.997154,60.917126 92.701416,63.641930 
	C91.279350,64.850647 90.151733,65.459702 88.750854,66.049835 
	C88.295555,66.016388 88.113518,66.001877 87.843521,65.637833 
	C87.701675,64.104462 87.647797,62.920616 87.693024,61.258286 
	C87.881714,58.219692 87.971306,55.659592 88.193604,52.745079 
	C88.851677,49.954578 89.377045,47.518486 89.902405,45.082390 
	C90.263115,44.284550 90.623833,43.486706 91.238007,42.484245 
z"/>
<path fill="#01DDB0" opacity="1.000000" stroke="none" 
	d="
M73.975266,52.017075 
	C74.793701,50.156082 75.612144,48.295090 76.699707,46.217674 
	C78.569946,47.083694 80.171082,48.166130 81.903076,49.948696 
	C81.351448,52.768875 80.668953,54.888920 79.682419,56.876297 
	C77.577339,55.168110 75.776299,53.592594 73.975266,52.017075 
z"/>
<path fill="#01D6B9" opacity="1.000000" stroke="none" 
	d="
M79.986458,57.008972 
	C80.668953,54.888920 81.351448,52.768875 82.057320,50.231834 
	C82.740829,49.830345 83.400955,49.845840 84.488815,50.194412 
	C85.964661,51.384819 87.012779,52.242153 88.060898,53.099487 
	C87.971306,55.659592 87.881714,58.219692 87.368805,61.099609 
	C85.644562,60.801891 84.343636,60.184357 82.841034,59.358040 
	C81.755051,58.435829 80.870750,57.722401 79.986458,57.008972 
z"/>
<path fill="#03A9E2" opacity="1.000000" stroke="none" 
	d="
M88.193604,52.745079 
	C87.012779,52.242153 85.964661,51.384819 84.821175,50.179176 
	C86.265213,48.338837 87.804619,46.846806 89.623215,45.218582 
	C89.377045,47.518486 88.851677,49.954578 88.193604,52.745079 
z"/>
<path fill="#01BBD6" opacity="1.000000" stroke="none" 
	d="
M79.682419,56.876297 
	C80.870750,57.722401 81.755051,58.435829 82.527161,59.515625 
	C80.983757,61.850021 79.552544,63.818054 77.954010,66.009949 
	C76.863556,66.153931 75.940422,66.074051 74.854202,65.754486 
	C74.118973,65.008255 73.546837,64.501701 72.980362,63.595695 
	C72.241646,61.423401 71.497261,59.650562 70.752869,57.877724 
	C70.471359,55.189949 70.189850,52.502174 69.853027,49.411469 
	C70.999374,49.912086 72.201035,50.815632 73.688980,51.868126 
	C75.776299,53.592594 77.577339,55.168110 79.682419,56.876297 
z"/>
<path fill="#03C3BF" opacity="1.000000" stroke="none" 
	d="
M70.401093,57.933754 
	C71.497261,59.650562 72.241646,61.423401 72.611542,63.591454 
	C70.809227,63.665974 69.381401,63.345280 67.562149,63.018089 
	C66.125862,63.008797 65.080994,63.006001 64.036133,63.003208 
	C63.556408,62.696529 63.076679,62.389854 62.288918,61.856369 
	C61.980881,61.629555 61.928867,61.193005 61.928867,61.193001 
	C64.635689,60.125263 67.342506,59.057526 70.401093,57.933754 
z"/>
<path fill="#04D6A2" opacity="1.000000" stroke="none" 
	d="
M61.619728,61.178139 
	C61.928867,61.193005 61.980881,61.629555 61.989918,61.849884 
	C61.124420,62.218147 60.249882,62.366085 59.178833,62.282845 
	C59.758408,61.755531 60.534500,61.459400 61.619728,61.178139 
z"/>
<path fill="#04D6A2" opacity="1.000000" stroke="none" 
	d="
M56.566692,62.510479 
	C56.329086,62.725422 55.837566,62.861458 55.083435,62.958733 
	C55.318146,62.757168 55.815460,62.594368 56.566692,62.510479 
z"/>
<path fill="#264B65" opacity="1.000000" stroke="none" 
	d="
M77.704910,28.102816 
	C75.784569,28.816452 73.458031,29.507357 70.724236,30.235952 
	C72.644226,29.542456 74.971466,28.811270 77.704910,28.102816 
z"/>
<path fill="#03A2EB" opacity="1.000000" stroke="none" 
	d="
M115.446739,81.213165 
	C114.549171,80.793640 113.917343,80.097969 113.085419,79.107590 
	C114.473991,74.806503 116.062660,70.800125 117.715164,66.435654 
	C117.975220,66.056129 118.171455,66.034683 118.664192,66.392746 
	C119.004158,67.569954 119.047630,68.367653 119.091110,69.165344 
	C117.964897,73.089241 116.838692,77.013130 115.446739,81.213165 
z"/>
<path fill="#0A93CC" opacity="1.000000" stroke="none" 
	d="
M119.265556,68.892609 
	C119.047630,68.367653 119.004158,67.569954 118.959564,66.371979 
	C119.153236,65.979393 119.348015,65.987099 119.828369,66.058052 
	C119.889297,66.954163 119.664658,67.787018 119.265556,68.892609 
z"/>
<path fill="#04B8CB" opacity="1.000000" stroke="none" 
	d="
M95.058502,62.991806 
	C95.097160,60.608013 95.135818,58.224216 95.340683,55.506073 
	C97.288536,56.542637 98.896744,58.635014 100.892609,59.114784 
	C103.860992,59.828331 107.103378,59.402016 110.625336,59.486618 
	C111.013588,61.391865 111.005669,63.271282 110.999527,65.558952 
	C108.978226,66.484688 106.955154,67.002174 104.501968,67.124924 
	C103.590675,64.926628 103.109512,63.123074 102.590256,61.176781 
	C99.726570,61.866879 97.392540,62.429344 95.058502,62.991806 
z"/>
<path fill="#0A93CC" opacity="1.000000" stroke="none" 
	d="
M114.886093,65.426712 
	C114.831329,65.613358 114.668983,65.674950 114.249252,65.696274 
	C114.154922,65.299858 114.417137,65.181747 114.886093,65.426712 
z"/>
<path fill="#01BBD6" opacity="1.000000" stroke="none" 
	d="
M95.112259,78.925583 
	C94.286560,80.760422 93.460861,82.595261 92.398331,84.674316 
	C89.487968,82.863113 86.814430,80.807693 83.956055,78.461945 
	C83.826385,77.987762 83.881546,77.803894 84.322853,77.282516 
	C86.482666,75.946434 88.256332,74.947853 90.311935,74.110352 
	C92.100006,75.822815 93.606133,77.374199 95.112259,78.925583 
z"/>
<path fill="#01D6B9" opacity="1.000000" stroke="none" 
	d="
M67.953583,63.024590 
	C69.381401,63.345280 70.809227,63.665974 72.605865,63.990910 
	C73.546837,64.501701 74.118973,65.008255 74.574089,66.019791 
	C74.303589,68.344810 74.150108,70.164856 73.996628,71.984894 
	C73.188782,71.745163 72.380943,71.505432 71.273766,71.154709 
	C70.160309,70.731522 69.346191,70.419334 68.267128,69.502411 
	C67.985992,66.939987 67.969788,64.982292 67.953583,63.024590 
z"/>
<path fill="#04D6A2" opacity="1.000000" stroke="none" 
	d="
M67.562149,63.018089 
	C67.969788,64.982292 67.985992,66.939987 67.999435,69.314789 
	C65.967796,69.376595 63.938908,69.021309 61.536472,68.558815 
	C62.113899,66.889717 63.064873,65.327820 64.025993,63.384567 
	C65.080994,63.006001 66.125862,63.008797 67.562149,63.018089 
z"/>
<path fill="#0C151C" opacity="1.000000" stroke="none" 
	d="
M61.006001,89.415771 
	C60.519955,89.240631 60.032040,88.832870 59.660133,88.192368 
	C60.185471,88.367462 60.594799,88.775307 61.006001,89.415771 
z"/>
<path fill="#04D6A2" opacity="1.000000" stroke="none" 
	d="
M56.330353,69.031784 
	C56.079376,68.684792 56.282261,68.424850 56.777008,68.105156 
	C57.536434,68.125679 58.074642,68.261124 58.798561,68.607849 
	C58.227367,68.900650 57.470459,68.982162 56.330353,69.031784 
z"/>
<path fill="#02CAC3" opacity="1.000000" stroke="none" 
	d="
M74.305542,72.136314 
	C74.150108,70.164856 74.303589,68.344810 74.737183,66.259476 
	C75.940422,66.074051 76.863556,66.153931 78.250946,66.149307 
	C80.163956,67.065590 81.612709,68.066368 82.935791,69.312271 
	C82.537239,70.033470 82.264359,70.509552 81.991486,70.985626 
	C80.847992,71.642799 79.704498,72.299973 78.222504,72.985947 
	C76.794151,72.772408 75.704300,72.530067 74.305542,72.136314 
z"/>
<path fill="#01DDB0" opacity="1.000000" stroke="none" 
	d="
M82.274513,71.208511 
	C82.264359,70.509552 82.537239,70.033470 83.250763,69.222420 
	C85.104774,67.920753 86.518127,66.954056 87.931488,65.987366 
	C88.113518,66.001877 88.295555,66.016388 88.743683,66.444916 
	C89.345650,68.910873 89.681519,70.962807 90.018723,73.248398 
	C90.020058,73.482056 90.029999,73.949272 90.029999,73.949272 
	C88.256332,74.947853 86.482666,75.946434 84.372711,76.998917 
	C83.543465,75.179016 83.050499,73.305199 82.274513,71.208511 
z"/>
<path fill="#02CAC3" opacity="1.000000" stroke="none" 
	d="
M95.039856,62.992321 
	C97.392540,62.429344 99.726570,61.866879 102.590256,61.176781 
	C103.109512,63.123074 103.590675,64.926628 104.105568,67.156723 
	C101.635811,68.670265 99.132339,69.757256 96.277451,70.886314 
	C95.926041,70.928375 95.870033,70.881981 95.911560,70.472977 
	C95.630455,67.707726 95.307823,65.351479 94.985199,62.995239 
	C94.985207,62.995239 95.021202,62.992836 95.039856,62.992321 
z"/>
<path fill="#04D6A2" opacity="1.000000" stroke="none" 
	d="
M90.311935,74.110352 
	C90.029999,73.949272 90.020058,73.482056 90.367142,73.205887 
	C92.432831,72.247139 94.151428,71.564560 95.870033,70.881981 
	C95.870033,70.881981 95.926041,70.928375 95.934929,70.963715 
	C96.324821,73.680191 96.705826,76.361320 97.047401,79.430832 
	C96.533897,79.599419 96.059830,79.379631 95.349007,79.042717 
	C93.606133,77.374199 92.100006,75.822815 90.311935,74.110352 
z"/>
<path fill="#264B65" opacity="1.000000" stroke="none" 
	d="
M114.676285,44.923592 
	C113.538559,44.054874 112.351067,42.842979 111.050140,41.312637 
	C112.166649,42.189598 113.396584,43.385010 114.676285,44.923592 
z"/>
<path fill="#01D6B9" opacity="1.000000" stroke="none" 
	d="
M95.911560,70.472977 
	C94.151428,71.564560 92.432831,72.247139 90.365814,72.972229 
	C89.681519,70.962807 89.345650,68.910873 89.016953,66.463844 
	C90.151733,65.459702 91.279350,64.850647 92.698212,64.108864 
	C93.485207,63.724968 93.980965,63.473801 94.730957,63.108936 
	C95.307823,65.351479 95.630455,67.707726 95.911560,70.472977 
z"/>
<path fill="#101821" opacity="1.000000" stroke="none" 
	d="
M87.843521,65.637833 
	C86.518127,66.954056 85.104774,67.920753 83.376434,68.977295 
	C81.612709,68.066368 80.163956,67.065590 78.418259,65.925446 
	C79.552544,63.818054 80.983757,61.850021 82.728844,59.724403 
	C84.343636,60.184357 85.644562,60.801891 87.269699,61.578098 
	C87.647797,62.920616 87.701675,64.104462 87.843521,65.637833 
z"/>
</svg>